
<svg xmlns="http://www.w3.org/2000/svg" width="200" height="55" fill="none"><g fill="#003F19" clip-path="url(#a)"><path d="M32.217 27.837c0 10.113-6.575 14.99-13.986 14.99-2.63 0-5.559-.714-7.412-2.26l-7.232 2.26V7.494c0-2.023-.837-3.152-2.989-3.45L0 3.985v-.832L12.373 0v20.045c1.375-4.282 4.364-6.245 8.31-6.245 7.112 0 11.536 5.473 11.536 14.037h-.002zM17.453 41.34c3.945 0 5.619-4.758 5.619-11.599 0-6.84-1.973-11.362-5.559-11.362-2.749 0-5.14 2.142-5.14 7.317v7.078c0 5.115 1.674 8.566 5.081 8.566h-.001zm15.841-5.83c0-11.064 16.677-6.007 16.677-14.87 0-3.212-1.793-5.354-4.423-5.354s-4.184 2.44-4.184 5.532c0 1.011.12 2.081.479 3.152h-8.548c.24-6.306 5.799-10.172 13.389-10.172 7.59 0 12.074 3.866 12.074 10.113V35.57c0 2.023.776 3.152 2.99 3.45l.537.06v.832L50.33 43.005v-6.9c-1.316 4.937-4.543 6.72-8.786 6.72-4.841 0-8.249-3.032-8.249-7.316l-.001.001zm12.552 2.915c2.152 0 4.125-1.605 4.125-5.592v-8.208c-1.913 4.105-7.89 2.26-7.89 9.16 0 2.498 1.553 4.64 3.765 4.64z"/><path d="M65.99 47.467c1.973 0 3.765-1.428 5.02-4.342l.718-1.487-9.683-20.759c-1.494-3.212-3.288-5.294-4.423-5.413v-.772h15.9v.772c-1.912.18-2.928 1.012-2.928 2.32 0 .476.18.951.418 1.546l5.5 12.016 4.183-8.982c.956-1.963 1.375-3.391 1.375-4.401 0-1.606-1.017-2.261-2.99-2.498v-.773h8.667v.772c-1.374.357-3.048 2.082-5.558 7.257l-9.564 20.58c-3.945 8.27-6.813 11.242-11.595 11.242-1.017 0-2.212-.356-3.766-1.07l2.33-8.744c2.212 2.024 4.484 2.736 6.396 2.736z"/><path d="M97.968 42.708c-5.259 0-8.487-3.152-8.487-8.566V16.18h-3.526v-.833c3.825-2.974 7.59-5.947 11.476-10.29h.837v9.636h7.471v1.487h-7.472v17.845c0 3.152 1.435 5.115 4.245 5.115 1.075 0 2.271-.417 3.288-1.368l.538.476c-1.375 2.38-4.483 4.461-8.368 4.461h-.002z"/><path d="M120.085 13.86c7.412 0 11.537 3.628 11.537 9.934 0 .595-.06 1.249-.119 1.903h-18.231c.119 7.613 3.945 11.48 9.384 11.48 3.766 0 6.694-2.082 8.069-4.877l.657.237c-1.017 6.245-5.858 10.232-12.911 10.232-8.368 0-13.928-5.71-13.928-14.158 0-9.278 6.575-14.751 15.541-14.751h.001zm2.69 10.35c.12-.833.18-1.605.18-2.38 0-3.925-1.673-6.484-4.363-6.484-3.348 0-5.081 4.164-5.32 8.863h9.503v.001zm25.523-8.924c-4.543 0-7.292 4.997-7.292 10.707 0 6.662 3.826 11.241 9.265 11.241 3.466 0 6.276-1.903 7.771-4.877l.718.237c-.957 6.187-5.5 10.172-12.374 10.172-8.248 0-14.524-5.83-14.524-14.335 0-8.506 6.755-14.633 16.139-14.633 3.167 0 6.575.654 9.265 1.903l-.837 7.495h-.837c-.717-4.878-3.765-7.911-7.292-7.911l-.002.001zm11.06 20.224c0-11.064 16.676-6.007 16.676-14.87 0-3.212-1.793-5.354-4.422-5.354-2.63 0-4.184 2.44-4.184 5.532 0 1.011.119 2.081.478 3.152h-8.547c.239-6.306 5.798-10.172 13.388-10.172s12.075 3.866 12.075 10.113V35.57c0 2.023.776 3.152 2.989 3.45l.537.06v.832l-11.954 3.094v-6.9c-1.316 4.937-4.544 6.72-8.787 6.72-4.84 0-8.248-3.032-8.248-7.316l-.001.001zm12.551 2.915c2.153 0 4.125-1.605 4.125-5.592v-8.208c-1.912 4.105-7.89 2.26-7.89 9.16 0 2.498 1.554 4.64 3.765 4.64zm16.799-23.3v.149h-3.521v-.15c.739-.095.931-.318.931-.756V8.456h-.096c-1.348 0-1.98.714-2.247 1.704h-.15l.268-2.14c.513.085 1.187.138 1.862.138h2.386c.675 0 1.349-.053 1.862-.138l.268 2.14h-.15c-.257-.99-.898-1.704-2.247-1.704h-.096v5.912c0 .436.202.66.931.757h-.001zm10.329-5.764v5.081c0 .374.214.575.963.681v.149h-3.574v-.149c.749-.096.953-.319.953-.68V9.574l-2.729 5.857h-.149l-2.88-5.857v4.867c0 .415.279.585.963.681v.149h-2.216v-.149c.675-.096.954-.266.954-.68V9.36c0-.702-.299-1.001-.964-1.054v-.149h2.409l2.526 5.167 2.408-5.167h2.302v.149c-.674.043-.963.34-.963 1.054h-.003z"/></g><defs><clipPath id="a"><path fill="#fff" d="M0 0h200v54.545H0z"/></clipPath></defs></svg>